<svg preserveAspectRatio="none" width="100%" height="100%" overflow="visible" style="display: block;" viewBox="0 0 32 32" fill="none" xmlns="http://www.w3.org/2000/svg">
<g id="Frame 28">
<g id="Vector">
<path d="M30 16.3295C30 15.3014 29.9091 14.3127 29.7403 13.3636H16.2857V18.9791H23.974C23.6364 20.785 22.6234 22.3141 21.1039 23.3423V26.9936H25.7403C28.4416 24.4627 30 20.7455 30 16.3295Z" fill="#4285F4"/>
<path d="M16.2857 30.5C20.1429 30.5 23.3766 29.2082 25.7403 26.9936L21.1039 23.3423C19.8312 24.2123 18.2078 24.7395 16.2857 24.7395C12.5714 24.7395 9.41559 22.1955 8.28572 18.7682H3.53247V22.5118C5.88312 27.2441 10.7013 30.5 16.2857 30.5Z" fill="#34A853"/>
<path d="M8.28571 18.755C8 17.885 7.83117 16.9623 7.83117 16C7.83117 15.0377 8 14.115 8.28571 13.245V9.50136H3.53247C2.55844 11.4523 2 13.6536 2 16C2 18.3464 2.55844 20.5477 3.53247 22.4986L7.23377 19.5723L8.28571 18.755Z" fill="#FBBC05"/>
<path d="M16.2857 7.27364C18.3896 7.27364 20.2597 8.01182 21.7532 9.43545L25.8442 5.28318C23.3636 2.93682 20.1429 1.5 16.2857 1.5C10.7013 1.5 5.88312 4.75591 3.53247 9.50136L8.28571 13.245C9.41558 9.81773 12.5714 7.27364 16.2857 7.27364Z" fill="#EA4335"/>
</g>
</g>
</svg>
